#!OML:ASF I:\Actors\actors\Patient Classification 2\Patient 1\Session 1\actor1.ASF
:FULLY-SPECIFIED
:DEGREES
205
root -0.38654 18.8817 5.1598 15.0236 1.30306 -2.29958
lowerback 32.7683 -0.916261 3.45809
upperback 4.44024 0.00338207 -0.262516
thorax -11.948 -0.138697 -2.14215
lowerneck -10.9074 -2.52598 -3.42803
upperneck -0.878893 -3.18544 8.25309
head 1.85625 -1.38184 3.15356
rclavicle -1.39149e-015 2.78299e-015
rhumerus 5.0798 27.1974 -85.4405
rradius 44.9656
rwrist 13.0148
rhand -14.1037 -31.6923
rfingers 7.12502
rthumb 12.0291 -61.3266
lclavicle -1.39149e-015 2.78299e-015
lhumerus 10.0628 -24.3137 85.6612
lradius 42.7997
lwrist -7.98917
lhand -5.29279 -24.2202
lfingers 7.12502
lthumb 20.5121 4.71616
rfemur -10.0693 -0.925956 16.0799
rtibia 3.18055e-015
rfoot -16.2672 -16.5667
rtoes -2.13206
lfemur -27.7308 2.9709 -13.5692
ltibia 28.1534
lfoot -15.7797 6.72732
ltoes -55.8978
206
root -0.383514 18.8812 5.15355 14.9955 1.35793 -2.31612
lowerback 32.9172 -0.938028 3.52932
upperback 4.45815 0.0187604 -0.173748
thorax -11.986 -0.133709 -2.09049
lowerneck -11.1423 -2.43602 -3.5165
upperneck -0.840268 -3.03557 7.73992
head 1.88905 -1.31454 3.00117
rclavicle -2.18663e-015 -3.77691e-015
rhumerus 4.98806 28.2981 -84.6327
rradius 45.9763
rwrist 12.9793
rhand -13.2489 -31.9579
rfingers 7.12502
rthumb 12.8533 -61.5421
lclavicle -2.18663e-015 -3.77691e-015
lhumerus 9.92398 -23.6657 86.2874
lradius 42.6711
lwrist -8.32882
lhand -4.68596 -23.9015
lfingers 7.12502
lthumb 21.0951 4.97095
rfemur -10.0586 -0.975585 16.0978
rtibia 2.78299e-014
rfoot -16.1894 -16.5979
rtoes -2.24615
lfemur -27.7669 2.83178 -13.5464
ltibia 28.2088
lfoot -15.7679 6.8388
ltoes -55.943
207
root -0.381356 18.8801 5.14639 14.9908 1.46484 -2.32313
lowerback 33.017 -0.973392 3.52889
upperback 4.4775 -0.00710578 -0.0677347
thorax -12.0051 -0.143801 -1.96579
lowerneck -11.2117 -2.49094 -3.38018
upperneck -0.844902 -3.10876 7.21102
head 1.88523 -1.36403 2.78944
rclavicle -3.77691e-015 -1.14301e-015
rhumerus 4.97363 29.2121 -83.8548
rradius 46.8353
rwrist 13.2319
rhand -12.0784 -31.9837
rfingers 7.12502
rthumb 13.9815 -61.4936
lclavicle -3.77691e-015 -1.14301e-015
lhumerus 9.7996 -23.1344 86.7757
lradius 42.5874
lwrist -8.5716
lhand -4.31523 -23.776
lfingers 7.12502
lthumb 21.4512 5.05632
rfemur -10.0692 -1.07907 16.1217
rtibia -8.74653e-015
rfoot -16.0918 -16.6279
rtoes -2.26227
lfemur -27.8667 2.69496 -13.5272
ltibia 28.3016
lfoot -15.7754 6.90236
ltoes -55.9589
208
root -0.379161 18.8778 5.13803 15.0495 1.57269 -2.37809
lowerback 33.0132 -1.00754 3.51572
upperback 4.51398 -0.0360265 0.0714895
thorax -11.9629 -0.153247 -1.79778
lowerneck -11.156 -2.64902 -3.26252
upperneck -0.908771 -3.32239 6.83327
head 1.85144 -1.48322 2.62647
rclavicle 1.14301e-015 7.45443e-016
rhumerus 5.12714 30.1631 -83.0448
rradius 47.4625
rwrist 13
rhand -11.5289 -31.9377
rfingers 7.12502
rthumb 14.511 -61.4103
lclavicle 1.14301e-015 7.45443e-016
lhumerus 9.75024 -22.7991 87.0804
lradius 42.5741
lwrist -8.6982
lhand -4.33773 -23.7095
lfingers 7.12502
lthumb 21.4296 5.12528
rfemur -10.1589 -1.17365 16.2005
rtibia 4.77083e-015
rfoot -16.0475 -16.6572
rtoes -2.09198
lfemur -28.0575 2.59439 -13.4567
ltibia 28.4206
lfoot -15.8192 6.99505
ltoes -55.9803
209
root -0.378043 18.8745 5.12839 15.1458 1.67846 -2.51555
lowerback 32.9913 -1.04169 3.54633
upperback 4.53225 -0.0475305 0.231561
thorax -11.9326 -0.156948 -1.63798
lowerneck -11.0623 -2.81285 -3.23854
upperneck -0.907333 -3.54164 6.64467
head 1.84031 -1.59988 2.54622
rclavicle -4.02539e-015 8.29926e-015
rhumerus 5.34005 30.981 -82.3591
rradius 47.8514
rwrist 12.4111
rhand -11.5576 -32.0122
rfingers 7.12502
rthumb 14.4833 -61.4868
lclavicle -4.02539e-015 8.29926e-015
lhumerus 9.73289 -22.7233 87.1837
lradius 42.6668
lwrist -8.57431
lhand -4.41232 -23.7364
lfingers 7.12502
lthumb 21.358 5.10655
rfemur -10.3032 -1.24406 16.3718
rtibia -1.59028e-014
rfoot -16.0531 -16.6805
rtoes -1.99819
lfemur -28.288 2.51591 -13.2892
ltibia 28.5372
lfoot -15.8529 7.07608
ltoes -55.9873
210
root -0.37986 18.8715 5.12018 15.2247 1.72422 -2.61274
lowerback 33.0134 -1.03675 3.49354
upperback 4.5282 -0.0423938 0.349363
thorax -11.9457 -0.151452 -1.48525
lowerneck -11.0353 -2.9234 -3.14386
upperneck -0.691111 -3.70761 6.47972
head 1.90809 -1.68506 2.46463
rclavicle -1.54058e-015 -7.50412e-015
rhumerus 5.45236 31.334 -82.0421
rradius 48.0523
rwrist 12.1398
rhand -11.4988 -32.1941
rfingers 7.12502
rthumb 14.5399 -61.6646
lclavicle -1.54058e-015 -7.50412e-015
lhumerus 9.75354 -22.9597 87.0509
lradius 42.7843
lwrist -8.21802
lhand -4.53295 -23.8091
lfingers 7.12502
lthumb 21.2421 5.04691
rfemur -10.4292 -1.26491 16.4909
rtibia -5.56597e-015
rfoot -16.0541 -16.692
rtoes -1.95994
lfemur -28.4671 2.48695 -13.1669
ltibia 28.6353
lfoot -15.8912 7.0952
ltoes -55.9219
211
root -0.382621 18.869 5.11442 15.2838 1.67897 -2.63925
lowerback 33.067 -1.00458 3.40894
upperback 4.53186 -0.0263068 0.371394
thorax -11.963 -0.14098 -1.42228
lowerneck -11.0773 -3.01659 -3.07209
upperneck -0.372872 -3.8541 6.42563
head 2.02542 -1.75488 2.42573
rclavicle 8.54774e-015 -6.4605e-015
rhumerus 5.49127 31.7261 -82.0269
rradius 48.0514
rwrist 10.2586
rhand -13.9471 -32.4219
rfingers 7.12502
rthumb 12.1801 -62.0472
lclavicle 8.54774e-015 -6.4605e-015
lhumerus 9.83683 -23.4704 86.6741
lradius 42.9114
lwrist -7.86092
lhand -4.74013 -23.7256
lfingers 7.12502
lthumb 21.0431 5.15268
rfemur -10.5311 -1.21637 16.5124
rtibia -6.36111e-014
rfoot -16.0169 -16.6977
rtoes -2.10977
lfemur -28.577 2.52805 -13.1399
ltibia 28.6998
lfoot -15.9083 7.07939
ltoes -55.8915
212
root -0.385098 18.868 5.11047 15.3419 1.60959 -2.66079
lowerback 33.1428 -0.986828 3.41452
upperback 4.52212 -0.00420395 0.333539
thorax -12.0037 -0.132603 -1.47415
lowerneck -11.0886 -3.08223 -3.1636
upperneck -0.102183 -3.94831 6.57265
head 2.13064 -1.79415 2.48779
rclavicle -4.62174e-015 -8.44835e-015
rhumerus 5.61418 30.6344 -82.3958
rradius 47.8024
rwrist 12.4739
rhand -11.2116 -32.2591
rfingers 7.12502
rthumb 14.8166 -61.7094
lclavicle -4.62174e-015 -8.44835e-015
lhumerus 9.93149 -24.0489 86.23
lradius 43.012
lwrist -7.60248
lhand -4.95341 -23.616
lfingers 7.12502
lthumb 20.8382 5.28496
rfemur -10.626 -1.14481 16.5265
rtibia 3.10104e-014
rfoot -15.9593 -16.7189
rtoes -2.52156
lfemur -28.6525 2.63077 -13.1325
ltibia 28.7174
lfoot -15.8814 7.03427
ltoes -55.9157
213
root -0.38797 18.8682 5.10904 15.391 1.5549 -2.65893
lowerback 33.2042 -0.978526 3.45135
upperback 4.51286 0.0131507 0.272234
thorax -12.0381 -0.127745 -1.56619
lowerneck -11.0252 -3.10565 -3.34068
upperneck 0.104814 -3.97734 6.81329
head 2.20384 -1.80039 2.60184
rclavicle 2.08724e-015 5.06901e-015
rhumerus 5.70443 29.9767 -82.7394
rradius 47.4795
rwrist 12.8405
rhand -11.0323 -32.1018
rfingers 7.12502
rthumb 14.9894 -61.5393
lclavicle 2.08724e-015 5.06901e-015
lhumerus 10.0334 -24.5433 85.8334
lradius 43.0621
lwrist -7.41948
lhand -5.05565 -23.6331
lfingers 7.12502
lthumb 20.7399 5.27856
rfemur -10.691 -1.09281 16.5221
rtibia 1.74931e-014
rfoot -15.9161 -16.7496
rtoes -2.87063
lfemur -28.6897 2.74885 -13.1562
ltibia 28.6971
lfoot -15.8306 7.00172
ltoes -55.9655
214
root -0.390367 18.8688 5.10902 15.4516 1.51087 -2.60235
lowerback 33.1953 -0.972432 3.4443
upperback 4.54181 0.00628425 0.193184
thorax -12.0025 -0.130623 -1.64449
lowerneck -10.9771 -3.11409 -3.48318
upperneck 0.280649 -3.98762 7.00199
head 2.26575 -1.79886 2.69325
rclavicle 8.99501e-015 4.96962e-017
rhumerus 5.92108 29.3952 -82.9758
rradius 47.1514
rwrist 13.1512
rhand -10.8313 -32.043
rfingers 7.12502
rthumb 15.183 -61.466
lclavicle 8.99501e-015 4.96962e-017
lhumerus 10.1688 -24.9117 85.447
lradius 43.1264
lwrist -7.25672
lhand -4.8657 -23.6275
lfingers 7.12502
lthumb 20.9224 5.26419
rfemur -10.7489 -1.06866 16.4587
rtibia -4.6118e-014
rfoot -15.9386 -16.7424
rtoes -2.82507
lfemur -28.7222 2.82688 -13.2396
ltibia 28.659
lfoot -15.7568 6.96685
ltoes -55.9967
215
root -0.391802 18.8702 5.10902 15.5301 1.50704 -2.52066
lowerback 33.1679 -0.980205 3.43588
upperback 4.57185 -0.016926 0.129302
thorax -11.959 -0.140349 -1.69943
lowerneck -10.999 -3.15116 -3.6307
upperneck 0.496946 -4.03278 7.09641
head 2.35326 -1.81585 2.7515
rclavicle 2.33572e-015 -4.82053e-015
rhumerus 6.20542 29.042 -83.014
rradius 46.8853
rwrist 13.2602
rhand -10.7652 -32.1299
rfingers 7.12502
rthumb 15.2467 -61.548
lclavicle 2.33572e-015 -4.82053e-015
lhumerus 10.3263 -25.1307 85.1586
lradius 43.155
lwrist -7.13444
lhand -4.54048 -23.5357
lfingers 7.12502
lthumb 21.2349 5.32115
rfemur -10.8207 -1.09261 16.3761
rtibia -4.05521e-014
rfoot -15.9878 -16.7005
rtoes -2.55336
lfemur -28.7807 2.8262 -13.3302
ltibia 28.614
lfoot -15.7278 6.93438
ltoes -55.9729
